Coordinates
version=1
nRows=26
nColumns=24
inDegrees=yes

Units are S.I. units (second, meters, Newtons, ...)
Angles are in degrees.

endheader
time	pelvis_tilt	pelvis_list	pelvis_rotation	pelvis_tx	pelvis_ty	pelvis_tz	hip_flexion_r	hip_adduction_r	hip_rotation_r	knee_angle_r	ankle_angle_r	subtalar_angle_r	mtp_angle_r	hip_flexion_l	hip_adduction_l	hip_rotation_l	knee_angle_l	ankle_angle_l	subtalar_angle_l	mtp_angle_l	lumbar_extension	lumbar_bending	lumbar_rotation
      1.56000000	     -7.51927195	     -1.97434173	      8.96668023	     -0.30588347	      1.28253563	     -0.91844214	     32.85734164	      0.54442362	     -1.07305651	    -29.50546548	      1.75080398	    -17.49702132	      3.60649069	      4.42887971	      7.41265879	     22.88784710	     -8.67478847	      3.92618027	    -20.91415066	      2.02860052	     -3.49146987	      1.98810449	    -12.35675452
      1.56500000	     -7.57643194	     -1.80199340	      8.75895477	     -0.30013237	      1.28182211	     -0.91794809	     32.96876788	      0.56577919	     -0.11195975	    -27.93710002	      1.72919261	    -17.70082372	      3.43909719	      3.94062426	      7.46431779	     22.53031244	     -8.47381104	      4.29160404	    -20.69333126	      2.14494622	     -3.40746870	      1.80004822	    -12.18916947
      1.57000000	     -7.65618880	     -1.66919212	      8.55658886	     -0.29435156	      1.28106814	     -0.91743733	     33.04348926	      0.62364617	      0.86944726	    -26.27871366	      1.62700730	    -18.07152555	      3.17213516	      3.53762235	      7.49296248	     22.08216979	     -8.38764635	      4.78884484	    -20.28347876	      2.35263425	     -3.28546750	      1.65059876	    -12.00290925
      1.57500000	     -7.74329335	     -1.48531649	      8.31066449	     -0.28853710	      1.28024265	     -0.91691365	     33.13350022	      0.62086568	      1.85822996	    -24.68185690	      1.70228581	    -17.99266066	      3.05074122	      3.08713383	      7.57224610	     21.67687909	     -8.21261966	      5.10278440	    -20.14198291	      2.43481675	     -3.15549169	      1.45061677	    -11.73428108
      1.58000000	     -7.86131491	     -1.32213313	      8.04512848	     -0.28260274	      1.27938472	     -0.91625289	     33.17953883	      0.67143823	      2.95618307	    -22.97400478	      1.56331436	    -18.32790914	      2.75662760	      2.66297268	      7.60762216	     21.12159769	     -8.01988300	      5.62155868	    -19.54574348	      2.70059263	     -2.97696667	      1.26422559	    -11.54727948
      1.58500000	     -7.97347328	     -1.13622657	      7.78801278	     -0.27673658	      1.27846162	     -0.91569546	     33.20554708	      0.64626476	      3.97940611	    -21.27836475	      1.55866502	    -18.14495620	      2.64020945	      2.25859523	      7.70310577	     20.65912821	     -7.88965066	      5.95904337	    -19.33889650	      2.81443925	     -2.81271690	      1.05960589	    -11.22791044
      1.59000000	     -8.11826298	     -0.97219476	      7.52132328	     -0.27071561	      1.27747615	     -0.91503269	     33.16888919	      0.65916425	      5.10391056	    -19.44489869	      1.31834125	    -18.38011333	      2.39028377	      1.89266796	      7.76048652	     20.03853657	     -7.77246678	      6.54871134	    -18.65203031	      3.13978173	     -2.58504005	      0.87612634	    -11.01002160
      1.59500000	     -8.26000463	     -0.74932757	      7.24360426	     -0.26466480	      1.27641699	     -0.91439217	     33.13176198	      0.58440372	      6.19015395	    -17.67630021	      1.23712746	    -18.20197550	      2.30802386	      1.46073107	      7.88062422	     19.52222800	     -7.55039453	      6.89389811	    -18.29583092	      3.31449675	     -2.36160308	      0.63041623	    -10.74248794
      1.60000000	     -8.43619193	     -0.53616454	      6.98067041	     -0.25859065	      1.27527939	     -0.91375471	     33.08656015	      0.49108893	      7.27290748	    -15.86258694	      0.94472964	    -18.10076183	      2.24006539	      1.12657479	      8.01454928	     18.93942968	     -7.45321780	      7.37691424	    -17.77070483	      3.60184599	     -2.09198247	      0.39197571	    -10.46032216
      1.60500000	     -8.60925291	     -0.27327006	      6.70526975	     -0.25247805	      1.27408053	     -0.91313477	     33.07242996	      0.33100626	      8.28133443	    -14.17960556	      0.84512819	    -17.67072020	      2.24018686	      0.72707228	      8.19916092	     18.45306226	     -7.24883380	      7.62420834	    -17.52008287	      3.74236893	     -1.81985581	      0.10269057	    -10.13455065
      1.61000000	     -8.80847111	     -0.01320215	      6.42208387	     -0.24632367	      1.27281878	     -0.91245413	     33.08176172	      0.17315879	      9.28851312	    -12.53993238	      0.66668939	    -17.31341116	      2.22727390	      0.37613879	      8.38403158	     17.86911775	     -7.08462827	      7.98520037	    -17.07704761	      3.99514938	     -1.51271921	     -0.18629112	     -9.82237594
      1.61500000	     -9.02045376	      0.24944799	      6.13826526	     -0.24015867	      1.27150988	     -0.91177612	     33.13340143	      0.00373451	     10.21930985	    -11.01144407	      0.48170125	    -16.86983962	      2.22340496	      0.05026523	      8.58149149	     17.28175334	     -6.94451980	      8.34928008	    -16.64198826	      4.25527096	     -1.18749165	     -0.47211112	     -9.52479806
      1.62000000	     -9.24534412	      0.52448901	      5.85689313	     -0.23402678	      1.27016458	     -0.91106798	     33.23590632	     -0.17637831	     11.10802495	     -9.61171791	      0.26341499	    -16.39117372	      2.20414404	     -0.23656069	      8.79912779	     16.67182201	     -6.84927852	      8.79056145	    -16.08450188	      4.60577760	     -0.85569380	     -0.76778609	     -9.27115174
      1.62500000	     -9.45763495	      0.77732117	      5.57220184	     -0.22781587	      1.26884885	     -0.91040140	     33.33915669	     -0.33539007	     11.84033245	     -8.31811424	      0.15914686	    -15.79603718	      2.19740699	     -0.56626497	      8.99587946	     16.08556362	     -6.69536981	      9.01872275	    -15.78428752	      4.80602002	     -0.51758182	     -1.03705966	     -8.91306679
      1.63000000	     -9.67544718	      1.03237417	      5.29714304	     -0.22163727	      1.26751418	     -0.90968054	     33.48604612	     -0.48541373	     12.51423188	     -7.16675764	     -0.02317535	    -15.19728435	      2.12333580	     -0.83568954	      9.20033316	     15.42210264	     -6.64490653	      9.45958892	    -15.15274386	      5.20944647	     -0.17770381	     -1.30772705	     -8.63264996
      1.63500000	     -9.86163504	      1.29789158	      5.01131496	     -0.21545974	      1.26621214	     -0.90894630	     33.63675039	     -0.62071563	     13.12185406	     -6.17359386	     -0.10764971	    -14.55295696	      2.06645907	     -1.17115006	      9.41356864	     14.81584812	     -6.52834788	      9.72187020	    -14.74021388	      5.47643514	      0.12813650	     -1.58506134	     -8.31838033
      1.64000000	    -10.05114398	      1.53639965	      4.73481325	     -0.20924010	      1.26493029	     -0.90820416	     33.81401031	     -0.71609020	     13.60155715	     -5.31894988	     -0.19805434	    -13.90218923	      1.98604857	     -1.47877034	      9.60297501	     14.15999722	     -6.45405250	     10.01607446	    -14.25023197	      5.78281993	      0.44918468	     -1.83406287	     -8.00200947
      1.64500000	    -10.22269383	      1.74649462	      4.45594916	     -0.20296645	      1.26369634	     -0.90747859	     33.99392963	     -0.76023606	     13.97281357	     -4.60927100	     -0.27509974	    -13.30026631	      1.93130826	     -1.81625804	      9.76562782	     13.50917198	     -6.35596827	     10.19494574	    -13.90984686	      5.99691099	      0.76883042	     -2.04200709	     -7.65022762
      1.65000000	    -10.38615394	      1.96433464	      4.21116154	     -0.19677318	      1.26247663	     -0.90672074	     34.20802584	     -0.80283150	     14.27088281	     -4.08263714	     -0.34707551	    -12.65199822	      1.77824171	     -2.10149094	      9.93821348	     12.83612701	     -6.36819447	     10.55973179	    -13.24578177	      6.38196013	      1.05616608	     -2.26540898	     -7.39374561
      1.65500000	    -10.53748327	      2.15080934	      3.96866823	     -0.19052796	      1.26130803	     -0.90597763	     34.42411077	     -0.79310534	     14.48026467	     -3.69722997	     -0.41540389	    -12.08519757	      1.61608108	     -2.40556010	     10.08032631	     12.17670989	     -6.36402082	     10.81482509	    -12.72877120	      6.69737244	      1.34512691	     -2.44839091	     -7.11365668
      1.66000000	    -10.66988181	      2.31656756	      3.72177360	     -0.18424146	      1.26019021	     -0.90522831	     34.64478786	     -0.73259120	     14.62720929	     -3.47476256	     -0.43857932	    -11.59708265	      1.50166152	     -2.73776447	     10.20143512	     11.51828248	     -6.34090468	     10.97704043	    -12.32374531	      6.93470364	      1.62239014	     -2.60480385	     -6.79966790
      1.66500000	    -10.79866556	      2.46395149	      3.53092597	     -0.17800755	      1.25912200	     -0.90450887	     34.87843879	     -0.66793350	     14.65910194	     -3.39682383	     -0.52492993	    -11.08097211	      1.26442204	     -2.99780240	     10.30720911	     10.84955491	     -6.45680038	     11.28392931	    -11.65472917	      7.31197244	      1.87964932	     -2.74607226	     -6.58545900
      1.67000000	    -10.90022220	      2.60590462	      3.31518626	     -0.17175695	      1.25810353	     -0.90377113	     35.11609896	     -0.55658771	     14.71812065	     -3.49004142	     -0.57339595	    -10.69326914	      1.10814251	     -3.32800549	     10.40601077	     10.25121997	     -6.48630959	     11.42331313	    -11.25168243	      7.54614626	      2.11341134	     -2.86911054	     -6.32650723
      1.67500000	    -11.00046567	      2.72049822	      3.14212168	     -0.16550003	      1.25714042	     -0.90307235	     35.34916376	     -0.43258535	     14.68600520	     -3.68984300	     -0.65105486	    -10.30652412	      0.89261315	     -3.59914074	     10.47960028	      9.63298412	     -6.62865367	     11.62269981	    -10.69812189	      7.85294764	      2.34615070	     -2.96758776	     -6.09556649
      1.68000000	    -11.08924491	      2.81150693	      2.99487568	     -0.15922761	      1.25624929	     -0.90241458	     35.56691950	     -0.29029343	     14.61543268	     -3.99099273	     -0.77221226	     -9.99411147	      0.65050499	     -3.86479231	     10.52944361	      9.06231888	     -6.80006640	     11.78801988	    -10.19008002	      8.15282055	      2.56611505	     -3.03450466	     -5.90656037
      1.68500000	    -11.16212700	      2.86669502	      2.88875735	     -0.15292711	      1.25543540	     -0.90181620	     35.75922789	     -0.12954028	     14.47026916	     -4.38760131	     -0.89917136	     -9.76321600	      0.31060810	     -4.11159969	     10.54186394	      8.50890504	     -7.03711761	     11.95726372	     -9.66173700	      8.49982592	      2.76768408	     -3.05708878	     -5.78110870
